<mxfile host="app.diagrams.net" modified="2023-03-20T03:18:35.184Z" agent="5.0 (Windows NT 10.0; Win64; x64) AppleWebKit/537.36 (KHTML, like Gecko) Chrome/111.0.0.0 Safari/537.36" etag="gg9b8C6u3Us8TAfRzQVJ" version="20.5.1" type="github">
  <diagram id="F0qt9p9_gp0n5vBjDSJf" name="Page-1">
    <mxGraphModel dx="1209" dy="674" grid="1" gridSize="10" guides="1" tooltips="1" connect="1" arrows="1" fold="1" page="1" pageScale="1" pageWidth="850" pageHeight="1100" math="0" shadow="0">
      <root>
        <mxCell id="0" />
        <mxCell id="1" parent="0" />
        <mxCell id="utsMV0J7rwJj6iE74iJi-5" value="" style="edgeStyle=orthogonalEdgeStyle;rounded=0;orthogonalLoop=1;jettySize=auto;html=1;" edge="1" parent="1" source="utsMV0J7rwJj6iE74iJi-1" target="utsMV0J7rwJj6iE74iJi-4">
          <mxGeometry relative="1" as="geometry" />
        </mxCell>
        <mxCell id="utsMV0J7rwJj6iE74iJi-1" value="start" style="strokeWidth=2;html=1;shape=mxgraph.flowchart.start_1;whiteSpace=wrap;" vertex="1" parent="1">
          <mxGeometry x="350" y="40" width="100" height="60" as="geometry" />
        </mxCell>
        <mxCell id="utsMV0J7rwJj6iE74iJi-8" value="" style="edgeStyle=orthogonalEdgeStyle;rounded=0;orthogonalLoop=1;jettySize=auto;html=1;" edge="1" parent="1" source="utsMV0J7rwJj6iE74iJi-4" target="utsMV0J7rwJj6iE74iJi-7">
          <mxGeometry relative="1" as="geometry" />
        </mxCell>
        <mxCell id="utsMV0J7rwJj6iE74iJi-4" value="menu" style="whiteSpace=wrap;html=1;strokeWidth=2;" vertex="1" parent="1">
          <mxGeometry x="340" y="140" width="120" height="60" as="geometry" />
        </mxCell>
        <mxCell id="utsMV0J7rwJj6iE74iJi-12" value="" style="edgeStyle=orthogonalEdgeStyle;rounded=0;orthogonalLoop=1;jettySize=auto;html=1;" edge="1" parent="1" source="utsMV0J7rwJj6iE74iJi-7" target="utsMV0J7rwJj6iE74iJi-11">
          <mxGeometry relative="1" as="geometry" />
        </mxCell>
        <mxCell id="utsMV0J7rwJj6iE74iJi-7" value="greeting" style="whiteSpace=wrap;html=1;strokeWidth=2;" vertex="1" parent="1">
          <mxGeometry x="340" y="250" width="120" height="60" as="geometry" />
        </mxCell>
        <mxCell id="utsMV0J7rwJj6iE74iJi-18" value="" style="edgeStyle=orthogonalEdgeStyle;rounded=0;orthogonalLoop=1;jettySize=auto;html=1;" edge="1" parent="1" source="utsMV0J7rwJj6iE74iJi-11" target="utsMV0J7rwJj6iE74iJi-17">
          <mxGeometry relative="1" as="geometry" />
        </mxCell>
        <mxCell id="utsMV0J7rwJj6iE74iJi-11" value="teaching" style="whiteSpace=wrap;html=1;strokeWidth=2;" vertex="1" parent="1">
          <mxGeometry x="340" y="350" width="120" height="60" as="geometry" />
        </mxCell>
        <mxCell id="utsMV0J7rwJj6iE74iJi-60" style="edgeStyle=orthogonalEdgeStyle;rounded=0;orthogonalLoop=1;jettySize=auto;html=1;" edge="1" parent="1" source="utsMV0J7rwJj6iE74iJi-13" target="utsMV0J7rwJj6iE74iJi-7">
          <mxGeometry relative="1" as="geometry" />
        </mxCell>
        <mxCell id="utsMV0J7rwJj6iE74iJi-13" value="teaching&amp;nbsp;&lt;br&gt;material" style="strokeWidth=2;html=1;shape=mxgraph.flowchart.database;whiteSpace=wrap;" vertex="1" parent="1">
          <mxGeometry x="200" y="250" width="60" height="60" as="geometry" />
        </mxCell>
        <mxCell id="utsMV0J7rwJj6iE74iJi-19" value="yes" style="edgeStyle=orthogonalEdgeStyle;rounded=0;orthogonalLoop=1;jettySize=auto;html=1;entryX=1;entryY=0.5;entryDx=0;entryDy=0;" edge="1" parent="1" source="utsMV0J7rwJj6iE74iJi-17" target="utsMV0J7rwJj6iE74iJi-11">
          <mxGeometry relative="1" as="geometry">
            <Array as="points">
              <mxPoint x="480" y="500" />
              <mxPoint x="480" y="380" />
            </Array>
          </mxGeometry>
        </mxCell>
        <mxCell id="utsMV0J7rwJj6iE74iJi-23" value="" style="edgeStyle=orthogonalEdgeStyle;rounded=0;orthogonalLoop=1;jettySize=auto;html=1;" edge="1" parent="1" source="utsMV0J7rwJj6iE74iJi-17" target="utsMV0J7rwJj6iE74iJi-22">
          <mxGeometry relative="1" as="geometry" />
        </mxCell>
        <mxCell id="utsMV0J7rwJj6iE74iJi-17" value="teach again?" style="rhombus;whiteSpace=wrap;html=1;strokeWidth=2;" vertex="1" parent="1">
          <mxGeometry x="360" y="460" width="80" height="80" as="geometry" />
        </mxCell>
        <mxCell id="utsMV0J7rwJj6iE74iJi-25" style="edgeStyle=orthogonalEdgeStyle;rounded=0;orthogonalLoop=1;jettySize=auto;html=1;" edge="1" parent="1" source="utsMV0J7rwJj6iE74iJi-22" target="utsMV0J7rwJj6iE74iJi-24">
          <mxGeometry relative="1" as="geometry" />
        </mxCell>
        <mxCell id="utsMV0J7rwJj6iE74iJi-22" value="Instruction" style="whiteSpace=wrap;html=1;strokeWidth=2;" vertex="1" parent="1">
          <mxGeometry x="340" y="580" width="120" height="60" as="geometry" />
        </mxCell>
        <mxCell id="utsMV0J7rwJj6iE74iJi-31" style="edgeStyle=orthogonalEdgeStyle;rounded=0;orthogonalLoop=1;jettySize=auto;html=1;entryX=0.5;entryY=0;entryDx=0;entryDy=0;" edge="1" parent="1" source="utsMV0J7rwJj6iE74iJi-24" target="utsMV0J7rwJj6iE74iJi-28">
          <mxGeometry relative="1" as="geometry" />
        </mxCell>
        <mxCell id="utsMV0J7rwJj6iE74iJi-24" value="Game" style="whiteSpace=wrap;html=1;strokeWidth=2;" vertex="1" parent="1">
          <mxGeometry x="340" y="700" width="120" height="60" as="geometry" />
        </mxCell>
        <mxCell id="utsMV0J7rwJj6iE74iJi-30" value="yes" style="edgeStyle=orthogonalEdgeStyle;rounded=0;orthogonalLoop=1;jettySize=auto;html=1;entryX=1;entryY=0.5;entryDx=0;entryDy=0;" edge="1" parent="1" source="utsMV0J7rwJj6iE74iJi-28" target="utsMV0J7rwJj6iE74iJi-24">
          <mxGeometry relative="1" as="geometry">
            <Array as="points">
              <mxPoint x="490" y="830" />
              <mxPoint x="490" y="730" />
            </Array>
          </mxGeometry>
        </mxCell>
        <mxCell id="utsMV0J7rwJj6iE74iJi-38" value="no" style="edgeStyle=orthogonalEdgeStyle;rounded=0;orthogonalLoop=1;jettySize=auto;html=1;entryX=0;entryY=0.5;entryDx=0;entryDy=0;" edge="1" parent="1" source="utsMV0J7rwJj6iE74iJi-28" target="utsMV0J7rwJj6iE74iJi-4">
          <mxGeometry relative="1" as="geometry">
            <Array as="points">
              <mxPoint x="130" y="840" />
              <mxPoint x="130" y="170" />
            </Array>
          </mxGeometry>
        </mxCell>
        <mxCell id="utsMV0J7rwJj6iE74iJi-28" value="quiz again?" style="rhombus;whiteSpace=wrap;html=1;strokeWidth=2;" vertex="1" parent="1">
          <mxGeometry x="360" y="800" width="80" height="80" as="geometry" />
        </mxCell>
        <mxCell id="utsMV0J7rwJj6iE74iJi-39" value="" style="edgeStyle=orthogonalEdgeStyle;rounded=0;orthogonalLoop=1;jettySize=auto;html=1;" edge="1" parent="1" source="utsMV0J7rwJj6iE74iJi-40" target="utsMV0J7rwJj6iE74iJi-42">
          <mxGeometry relative="1" as="geometry" />
        </mxCell>
        <mxCell id="utsMV0J7rwJj6iE74iJi-40" value="start" style="strokeWidth=2;html=1;shape=mxgraph.flowchart.start_1;whiteSpace=wrap;" vertex="1" parent="1">
          <mxGeometry x="749" y="40" width="100" height="60" as="geometry" />
        </mxCell>
        <mxCell id="utsMV0J7rwJj6iE74iJi-41" value="" style="edgeStyle=orthogonalEdgeStyle;rounded=0;orthogonalLoop=1;jettySize=auto;html=1;" edge="1" parent="1" source="utsMV0J7rwJj6iE74iJi-42" target="utsMV0J7rwJj6iE74iJi-44">
          <mxGeometry relative="1" as="geometry" />
        </mxCell>
        <mxCell id="utsMV0J7rwJj6iE74iJi-42" value="menu" style="whiteSpace=wrap;html=1;strokeWidth=2;" vertex="1" parent="1">
          <mxGeometry x="739" y="140" width="120" height="60" as="geometry" />
        </mxCell>
        <mxCell id="utsMV0J7rwJj6iE74iJi-43" value="" style="edgeStyle=orthogonalEdgeStyle;rounded=0;orthogonalLoop=1;jettySize=auto;html=1;" edge="1" parent="1" source="utsMV0J7rwJj6iE74iJi-44" target="utsMV0J7rwJj6iE74iJi-46">
          <mxGeometry relative="1" as="geometry" />
        </mxCell>
        <mxCell id="utsMV0J7rwJj6iE74iJi-44" value="greeting" style="whiteSpace=wrap;html=1;strokeWidth=2;" vertex="1" parent="1">
          <mxGeometry x="739" y="250" width="120" height="60" as="geometry" />
        </mxCell>
        <mxCell id="utsMV0J7rwJj6iE74iJi-45" value="" style="edgeStyle=orthogonalEdgeStyle;rounded=0;orthogonalLoop=1;jettySize=auto;html=1;" edge="1" parent="1" source="utsMV0J7rwJj6iE74iJi-46" target="utsMV0J7rwJj6iE74iJi-51">
          <mxGeometry relative="1" as="geometry" />
        </mxCell>
        <mxCell id="utsMV0J7rwJj6iE74iJi-46" value="teaching" style="whiteSpace=wrap;html=1;strokeWidth=2;" vertex="1" parent="1">
          <mxGeometry x="739" y="350" width="120" height="60" as="geometry" />
        </mxCell>
        <mxCell id="utsMV0J7rwJj6iE74iJi-47" style="edgeStyle=orthogonalEdgeStyle;rounded=0;orthogonalLoop=1;jettySize=auto;html=1;" edge="1" parent="1" source="utsMV0J7rwJj6iE74iJi-48" target="utsMV0J7rwJj6iE74iJi-46">
          <mxGeometry relative="1" as="geometry" />
        </mxCell>
        <mxCell id="utsMV0J7rwJj6iE74iJi-48" value="teaching&amp;nbsp;&lt;br&gt;material" style="strokeWidth=2;html=1;shape=mxgraph.flowchart.database;whiteSpace=wrap;" vertex="1" parent="1">
          <mxGeometry x="609" y="350" width="60" height="60" as="geometry" />
        </mxCell>
        <mxCell id="utsMV0J7rwJj6iE74iJi-49" value="yes" style="edgeStyle=orthogonalEdgeStyle;rounded=0;orthogonalLoop=1;jettySize=auto;html=1;entryX=1;entryY=0.5;entryDx=0;entryDy=0;" edge="1" parent="1" source="utsMV0J7rwJj6iE74iJi-51" target="utsMV0J7rwJj6iE74iJi-46">
          <mxGeometry relative="1" as="geometry">
            <Array as="points">
              <mxPoint x="879" y="500" />
              <mxPoint x="879" y="380" />
            </Array>
          </mxGeometry>
        </mxCell>
        <mxCell id="utsMV0J7rwJj6iE74iJi-50" value="" style="edgeStyle=orthogonalEdgeStyle;rounded=0;orthogonalLoop=1;jettySize=auto;html=1;" edge="1" parent="1" source="utsMV0J7rwJj6iE74iJi-51" target="utsMV0J7rwJj6iE74iJi-53">
          <mxGeometry relative="1" as="geometry" />
        </mxCell>
        <mxCell id="utsMV0J7rwJj6iE74iJi-51" value="teach again?" style="rhombus;whiteSpace=wrap;html=1;strokeWidth=2;" vertex="1" parent="1">
          <mxGeometry x="759" y="460" width="80" height="80" as="geometry" />
        </mxCell>
        <mxCell id="utsMV0J7rwJj6iE74iJi-52" style="edgeStyle=orthogonalEdgeStyle;rounded=0;orthogonalLoop=1;jettySize=auto;html=1;" edge="1" parent="1" source="utsMV0J7rwJj6iE74iJi-53" target="utsMV0J7rwJj6iE74iJi-55">
          <mxGeometry relative="1" as="geometry" />
        </mxCell>
        <mxCell id="utsMV0J7rwJj6iE74iJi-53" value="Instruction" style="whiteSpace=wrap;html=1;strokeWidth=2;" vertex="1" parent="1">
          <mxGeometry x="739" y="580" width="120" height="60" as="geometry" />
        </mxCell>
        <mxCell id="utsMV0J7rwJj6iE74iJi-54" style="edgeStyle=orthogonalEdgeStyle;rounded=0;orthogonalLoop=1;jettySize=auto;html=1;entryX=0.5;entryY=0;entryDx=0;entryDy=0;" edge="1" parent="1" source="utsMV0J7rwJj6iE74iJi-55" target="utsMV0J7rwJj6iE74iJi-58">
          <mxGeometry relative="1" as="geometry" />
        </mxCell>
        <mxCell id="utsMV0J7rwJj6iE74iJi-55" value="Game" style="whiteSpace=wrap;html=1;strokeWidth=2;" vertex="1" parent="1">
          <mxGeometry x="739" y="700" width="120" height="60" as="geometry" />
        </mxCell>
        <mxCell id="utsMV0J7rwJj6iE74iJi-56" value="yes" style="edgeStyle=orthogonalEdgeStyle;rounded=0;orthogonalLoop=1;jettySize=auto;html=1;entryX=1;entryY=0.5;entryDx=0;entryDy=0;" edge="1" parent="1" source="utsMV0J7rwJj6iE74iJi-58" target="utsMV0J7rwJj6iE74iJi-55">
          <mxGeometry relative="1" as="geometry">
            <Array as="points">
              <mxPoint x="889" y="830" />
              <mxPoint x="889" y="730" />
            </Array>
          </mxGeometry>
        </mxCell>
        <mxCell id="utsMV0J7rwJj6iE74iJi-63" value="" style="edgeStyle=orthogonalEdgeStyle;rounded=0;orthogonalLoop=1;jettySize=auto;html=1;" edge="1" parent="1" source="utsMV0J7rwJj6iE74iJi-58" target="utsMV0J7rwJj6iE74iJi-62">
          <mxGeometry relative="1" as="geometry" />
        </mxCell>
        <mxCell id="utsMV0J7rwJj6iE74iJi-58" value="quiz again?" style="rhombus;whiteSpace=wrap;html=1;strokeWidth=2;" vertex="1" parent="1">
          <mxGeometry x="759" y="800" width="80" height="80" as="geometry" />
        </mxCell>
        <mxCell id="utsMV0J7rwJj6iE74iJi-64" value="play" style="edgeStyle=orthogonalEdgeStyle;rounded=0;orthogonalLoop=1;jettySize=auto;html=1;entryX=1;entryY=0.5;entryDx=0;entryDy=0;" edge="1" parent="1" source="utsMV0J7rwJj6iE74iJi-62" target="utsMV0J7rwJj6iE74iJi-46">
          <mxGeometry relative="1" as="geometry">
            <Array as="points">
              <mxPoint x="1100" y="960" />
              <mxPoint x="1100" y="380" />
            </Array>
          </mxGeometry>
        </mxCell>
        <mxCell id="utsMV0J7rwJj6iE74iJi-70" value="" style="edgeStyle=orthogonalEdgeStyle;rounded=0;orthogonalLoop=1;jettySize=auto;html=1;" edge="1" parent="1" source="utsMV0J7rwJj6iE74iJi-62" target="utsMV0J7rwJj6iE74iJi-69">
          <mxGeometry relative="1" as="geometry" />
        </mxCell>
        <mxCell id="utsMV0J7rwJj6iE74iJi-62" value="menu" style="whiteSpace=wrap;html=1;strokeWidth=2;" vertex="1" parent="1">
          <mxGeometry x="739" y="930" width="120" height="60" as="geometry" />
        </mxCell>
        <mxCell id="utsMV0J7rwJj6iE74iJi-69" value="quit" style="ellipse;whiteSpace=wrap;html=1;strokeWidth=2;" vertex="1" parent="1">
          <mxGeometry x="739" y="1070" width="120" height="60" as="geometry" />
        </mxCell>
      </root>
    </mxGraphModel>
  </diagram>
</mxfile>
